<mxfile host="app.diagrams.net" modified="2021-06-05T18:06:48.671Z" agent="5.0 (Windows)" etag="j9OlNXxlvXs93k6JXmKJ" version="14.7.6" type="github">
  <diagram id="C5RBs43oDa-KdzZeNtuy" name="Page-1">
    <mxGraphModel dx="2062" dy="1072" grid="1" gridSize="10" guides="1" tooltips="1" connect="1" arrows="1" fold="1" page="1" pageScale="1" pageWidth="827" pageHeight="1169" math="0" shadow="0">
      <root>
        <mxCell id="WIyWlLk6GJQsqaUBKTNV-0" />
        <mxCell id="WIyWlLk6GJQsqaUBKTNV-1" parent="WIyWlLk6GJQsqaUBKTNV-0" />
        <mxCell id="bOoilShNlsJylwbw3koH-2" value="" style="edgeStyle=orthogonalEdgeStyle;rounded=0;orthogonalLoop=1;jettySize=auto;html=1;" edge="1" parent="WIyWlLk6GJQsqaUBKTNV-1" source="bOoilShNlsJylwbw3koH-0" target="bOoilShNlsJylwbw3koH-1">
          <mxGeometry relative="1" as="geometry" />
        </mxCell>
        <mxCell id="bOoilShNlsJylwbw3koH-0" value="开始" style="rounded=1;whiteSpace=wrap;html=1;" vertex="1" parent="WIyWlLk6GJQsqaUBKTNV-1">
          <mxGeometry x="330" y="90" width="120" height="60" as="geometry" />
        </mxCell>
        <mxCell id="bOoilShNlsJylwbw3koH-4" value="" style="edgeStyle=orthogonalEdgeStyle;rounded=0;orthogonalLoop=1;jettySize=auto;html=1;" edge="1" parent="WIyWlLk6GJQsqaUBKTNV-1" source="bOoilShNlsJylwbw3koH-1" target="bOoilShNlsJylwbw3koH-3">
          <mxGeometry relative="1" as="geometry" />
        </mxCell>
        <mxCell id="bOoilShNlsJylwbw3koH-1" value="打开网站" style="rounded=0;whiteSpace=wrap;html=1;" vertex="1" parent="WIyWlLk6GJQsqaUBKTNV-1">
          <mxGeometry x="330" y="210" width="120" height="60" as="geometry" />
        </mxCell>
        <mxCell id="bOoilShNlsJylwbw3koH-3" value="登录账号" style="rounded=0;whiteSpace=wrap;html=1;" vertex="1" parent="WIyWlLk6GJQsqaUBKTNV-1">
          <mxGeometry x="330" y="320" width="120" height="60" as="geometry" />
        </mxCell>
      </root>
    </mxGraphModel>
  </diagram>
</mxfile>
